<svg xmlns="http://www.w3.org/2000/svg" viewBox="0 0 40 40" width="100%" height="100%">
  <g fill="none" stroke="#2B8BE8" stroke-width="2.2" stroke-linecap="round" stroke-linejoin="round">
    {/* Outline building shape */}
    <path d="M10 28h20" />
    <path d="M12 28V14a2 2 0 0 1 2-2h12a2 2 0 0 1 2 2v14" />
    <path d="M17 28v-5a1.5 1.5 0 0 1 1.5-1.5h3a1.5 1.5 0 0 1 1.5 1.5v5" />
    <circle cx="20" cy="17" r="1.2" fill="#2B8BE8" />
    {/* Left side structure */}
    <path d="M8 28V18a2 2 0 0 1 2-2h2" />
    {/* Right side structure */}
    <path d="M32 28V18a2 2 0 0 1-2-2h-2" />
  </g>
</svg>
